<?xml version="1.0" standalone="no"?>
<!DOCTYPE svg PUBLIC "-//W3C//DTD SVG 20010904//EN"
 "http://www.w3.org/TR/2001/REC-SVG-20010904/DTD/svg10.dtd">
<svg version="1.0" xmlns="http://www.w3.org/2000/svg"
 width="82.000000pt" height="82.000000pt" viewBox="0 0 82.000000 82.000000"
 preserveAspectRatio="xMidYMid meet">
<metadata>
Created by potrace 1.14, written by Peter Selinger 2001-2017
</metadata>
<g transform="translate(0.000000,82.000000) scale(0.100000,-0.100000)"
fill="#000000" stroke="none">
<path d="M0 410 l0 -350 410 0 410 0 0 350 0 350 -410 0 -410 0 0 -350z m383
255 c30 -4 47 -2 47 4 0 6 7 11 15 11 21 0 19 -16 -9 -53 -30 -41 -44 -69 -18
-38 23 28 46 20 36 -12 -6 -20 -5 -21 12 -7 10 8 24 21 30 29 17 22 47 6 42
-23 -4 -19 -1 -23 11 -18 9 3 0 -8 -20 -26 -42 -37 -46 -38 -72 -15 -18 17
-19 17 -28 0 -15 -26 -42 -22 -33 6 l6 22 -26 -24 c-22 -21 -26 -22 -26 -7 0
9 14 42 30 72 30 53 30 54 9 54 -14 0 -39 -19 -66 -47 -38 -43 -48 -61 -44
-85 0 -5 -6 -8 -14 -8 -8 0 -15 7 -15 16 0 19 34 79 63 112 18 20 19 22 3 22
-28 0 -86 -28 -86 -41 0 -9 -3 -10 -10 -3 -26 26 41 77 90 69 14 -2 46 -7 73
-10z m-93 -365 l35 -8 -34 -1 c-19 -1 -50 -11 -68 -23 -39 -27 -53 -52 -23
-43 31 10 44 -4 24 -26 -20 -23 -38 -25 -30 -4 7 20 -18 19 -38 -1 -9 -8 -16
-24 -16 -35 0 -10 -5 -19 -10 -19 -17 0 -23 29 -10 45 10 12 9 15 -6 16 -17 1
-17 2 1 6 11 3 37 23 57 45 l37 41 -40 -6 c-22 -3 -48 -12 -58 -21 -22 -20
-31 -20 -31 -1 0 8 17 23 38 34 38 20 87 20 172 1z m415 9 c4 -5 -1 -20 -12
-31 -13 -15 -15 -22 -5 -25 19 -7 14 -21 -9 -25 -12 -2 -29 -14 -38 -28 l-16
-25 27 18 c39 24 45 21 17 -9 -29 -31 -76 -57 -89 -49 -6 4 -4 18 6 36 15 29
15 30 -5 20 -28 -16 -36 -14 -20 6 12 14 12 16 -1 11 -16 -5 -17 -21 -5 -50 9
-23 -19 -35 -40 -18 -20 17 -19 31 3 23 15 -6 15 -5 3 10 -13 16 -16 15 -48
-9 -34 -26 -63 -26 -63 -1 0 7 -5 18 -12 25 -9 9 -19 5 -45 -20 -26 -25 -33
-28 -33 -15 0 10 7 29 16 42 9 14 12 25 7 25 -5 0 -15 -11 -21 -24 -23 -51
-92 -72 -92 -29 0 22 59 83 80 83 9 0 22 -6 28 -12 10 -10 15 -10 22 2 8 13
11 12 24 -5 13 -19 15 -19 21 -2 8 19 35 23 35 5 0 -9 3 -9 9 1 15 24 44 5 38
-25 l-5 -26 32 31 c23 22 44 32 85 37 47 6 55 10 65 35 11 29 30 38 41 18z"/>
<path d="M485 530 c-3 -6 1 -7 9 -4 18 7 21 14 7 14 -6 0 -13 -4 -16 -10z"/>
<path d="M595 220 c3 -5 10 -10 16 -10 5 0 9 5 9 10 0 6 -7 10 -16 10 -8 0
-12 -4 -9 -10z"/>
<path d="M278 203 c-29 -34 -30 -48 -2 -21 15 15 26 30 23 33 -3 3 -13 -3 -21
-12z"/>
</g>
</svg>
